<svg width="28" height="28" viewBox="0 0 28 28" fill="none" xmlns="http://www.w3.org/2000/svg">
<g filter="url(#filter0_d_20177_15143)">
<circle cx="14" cy="12" r="8" fill="#0B9E0F"/>
<path d="M17.0046 13.5915V14.555C17.005 14.6444 16.9866 14.733 16.9507 14.8149C16.9148 14.8969 16.8621 14.9704 16.7961 15.0309C16.7301 15.0913 16.6521 15.1374 16.5672 15.166C16.4823 15.1947 16.3924 15.2053 16.3031 15.1973C15.3129 15.0899 14.3617 14.7522 13.526 14.2113C12.7485 13.7183 12.0894 13.0604 11.5953 12.2844C11.0515 11.4466 10.713 10.4927 10.6074 9.50003C10.5994 9.41122 10.6099 9.32172 10.6385 9.23721C10.667 9.1527 10.7128 9.07505 10.7731 9.00919C10.8333 8.94333 10.9066 8.89071 10.9883 8.85468C11.0701 8.81865 11.1584 8.8 11.2478 8.79992H12.2131C12.3693 8.79839 12.5207 8.85358 12.6391 8.95521C12.7575 9.05684 12.8349 9.19797 12.8567 9.3523C12.8975 9.66063 12.973 9.96337 13.082 10.2547C13.1253 10.3697 13.1346 10.4946 13.109 10.6147C13.0833 10.7348 13.0237 10.8451 12.9372 10.9324L12.5285 11.3402C12.9866 12.1443 13.6536 12.81 14.4592 13.2672L14.8679 12.8593C14.9554 12.7729 15.0659 12.7134 15.1862 12.6878C15.3065 12.6622 15.4317 12.6716 15.5469 12.7148C15.8388 12.8235 16.1422 12.8989 16.4511 12.9396C16.6074 12.9616 16.7502 13.0402 16.8522 13.1604C16.9543 13.2806 17.0085 13.434 17.0046 13.5915Z" fill="#F5F5F5"/>
</g>
<defs>
<filter id="filter0_d_20177_15143" x="0" y="0" width="28" height="28" filterUnits="userSpaceOnUse" color-interpolation-filters="sRGB">
<feFlood flood-opacity="0" result="BackgroundImageFix"/>
<feColorMatrix in="SourceAlpha" type="matrix" values="0 0 0 0 0 0 0 0 0 0 0 0 0 0 0 0 0 0 127 0" result="hardAlpha"/>
<feOffset dy="2"/>
<feGaussianBlur stdDeviation="3"/>
<feComposite in2="hardAlpha" operator="out"/>
<feColorMatrix type="matrix" values="0 0 0 0 0 0 0 0 0 0 0 0 0 0 0 0 0 0 0.2 0"/>
<feBlend mode="normal" in2="BackgroundImageFix" result="effect1_dropShadow_20177_15143"/>
<feBlend mode="normal" in="SourceGraphic" in2="effect1_dropShadow_20177_15143" result="shape"/>
</filter>
</defs>
</svg>
