<svg width="30" height="31" viewBox="0 0 30 31" fill="none" xmlns="http://www.w3.org/2000/svg">
<g filter="url(#filter0_d_19959_6508)">
<circle cx="15.0009" cy="13.5015" r="9" fill="#0B9E0F"/>
<path d="M18.3811 15.292V16.3758C18.3815 16.4765 18.3609 16.5761 18.3205 16.6683C18.2801 16.7605 18.2209 16.8432 18.1466 16.9112C18.0723 16.9793 17.9846 17.031 17.8891 17.0633C17.7936 17.0955 17.6924 17.1075 17.5919 17.0984C16.478 16.9776 15.4079 16.5977 14.4678 15.9893C13.5931 15.4345 12.8515 14.6944 12.2957 13.8215C11.6839 12.8789 11.3031 11.8058 11.1843 10.689C11.1752 10.5891 11.1871 10.4884 11.2192 10.3934C11.2513 10.2983 11.3029 10.2109 11.3706 10.1368C11.4384 10.0627 11.5209 10.0035 11.6128 9.96301C11.7048 9.92248 11.8042 9.9015 11.9047 9.9014H12.9907C13.1664 9.89968 13.3367 9.96177 13.47 10.0761C13.6032 10.1904 13.6902 10.3492 13.7148 10.5228C13.7606 10.8697 13.8456 11.2103 13.9682 11.5381C14.0169 11.6674 14.0274 11.8079 13.9986 11.943C13.9697 12.0782 13.9026 12.2022 13.8053 12.3004L13.3455 12.7593C13.8609 13.6638 14.6113 14.4127 15.5176 14.927L15.9774 14.4682C16.0758 14.3711 16.2001 14.3041 16.3354 14.2753C16.4708 14.2465 16.6116 14.257 16.7412 14.3056C17.0697 14.4279 17.4109 14.5128 17.7585 14.5585C17.9343 14.5833 18.0949 14.6717 18.2097 14.8069C18.3245 14.9421 18.3855 15.1148 18.3811 15.292Z" fill="#F5F5F5"/>
</g>
<defs>
<filter id="filter0_d_19959_6508" x="0.000946045" y="0.501495" width="30" height="30" filterUnits="userSpaceOnUse" color-interpolation-filters="sRGB">
<feFlood flood-opacity="0" result="BackgroundImageFix"/>
<feColorMatrix in="SourceAlpha" type="matrix" values="0 0 0 0 0 0 0 0 0 0 0 0 0 0 0 0 0 0 127 0" result="hardAlpha"/>
<feOffset dy="2"/>
<feGaussianBlur stdDeviation="3"/>
<feComposite in2="hardAlpha" operator="out"/>
<feColorMatrix type="matrix" values="0 0 0 0 0 0 0 0 0 0 0 0 0 0 0 0 0 0 0.2 0"/>
<feBlend mode="normal" in2="BackgroundImageFix" result="effect1_dropShadow_19959_6508"/>
<feBlend mode="normal" in="SourceGraphic" in2="effect1_dropShadow_19959_6508" result="shape"/>
</filter>
</defs>
</svg>
